<svg width="18" height="18" viewBox="0 0 18 18" fill="none" xmlns="http://www.w3.org/2000/svg">
<path d="M10.5 7.425V6.15C10.9125 5.975 11.3345 5.84375 11.766 5.75625C12.1975 5.66875 12.6505 5.625 13.125 5.625C13.45 5.625 13.7688 5.65 14.0812 5.7C14.3937 5.75 14.7 5.8125 15 5.8875V7.0875C14.7 6.975 14.3968 6.8905 14.0903 6.834C13.7838 6.7775 13.462 6.7495 13.125 6.75C12.65 6.75 12.1938 6.8095 11.7563 6.9285C11.3188 7.0475 10.9 7.213 10.5 7.425ZM10.5 11.55V10.275C10.9125 10.1 11.3345 9.96875 11.766 9.88125C12.1975 9.79375 12.6505 9.75 13.125 9.75C13.45 9.75 13.7688 9.775 14.0812 9.825C14.3937 9.875 14.7 9.9375 15 10.0125V11.2125C14.7 11.1 14.3968 11.0155 14.0903 10.959C13.7838 10.9025 13.462 10.8745 13.125 10.875C12.65 10.875 12.1938 10.9313 11.7563 11.0438C11.3188 11.1563 10.9 11.325 10.5 11.55ZM10.5 9.4875V8.2125C10.9125 8.0375 11.3345 7.90625 11.766 7.81875C12.1975 7.73125 12.6505 7.6875 13.125 7.6875C13.45 7.6875 13.7688 7.7125 14.0812 7.7625C14.3937 7.8125 14.7 7.875 15 7.95V9.15C14.7 9.0375 14.3968 8.953 14.0903 8.8965C13.7838 8.84 13.462 8.812 13.125 8.8125C12.65 8.8125 12.1938 8.872 11.7563 8.991C11.3188 9.11 10.9 9.2755 10.5 9.4875ZM9.75 12.7875C10.3 12.525 10.853 12.328 11.409 12.1965C11.965 12.065 12.537 11.9995 13.125 12C13.575 12 14.0157 12.0375 14.4473 12.1125C14.8788 12.1875 15.313 12.3 15.75 12.45V5.025C15.3375 4.85 14.9093 4.71875 14.4653 4.63125C14.0213 4.54375 13.5745 4.5 13.125 4.5C12.5375 4.5 11.9563 4.575 11.3813 4.725C10.8063 4.875 10.2625 5.1 9.75 5.4V12.7875ZM9 15C8.4 14.525 7.75 14.1563 7.05 13.8938C6.35 13.6313 5.625 13.5 4.875 13.5C4.35 13.5 3.83425 13.5688 3.32775 13.7063C2.82125 13.8438 2.337 14.0375 1.875 14.2875C1.6125 14.425 1.3595 14.4188 1.116 14.2688C0.8725 14.1188 0.7505 13.9 0.75 13.6125V4.575C0.75 4.4375 0.7845 4.30625 0.8535 4.18125C0.9225 4.05625 1.0255 3.9625 1.1625 3.9C1.75 3.6125 2.35325 3.3905 2.97225 3.234C3.59125 3.0775 4.2255 2.9995 4.875 3C5.6 3 6.3095 3.09375 7.0035 3.28125C7.6975 3.46875 8.363 3.75 9 4.125C9.6375 3.75 10.3033 3.46875 10.9972 3.28125C11.6912 3.09375 12.4005 3 13.125 3C13.775 3 14.4095 3.07825 15.0285 3.23475C15.6475 3.39125 16.2505 3.613 16.8375 3.9C16.975 3.9625 17.0783 4.05625 17.1473 4.18125C17.2163 4.30625 17.2505 4.4375 17.25 4.575V13.6125C17.25 13.9 17.1283 14.1188 16.8848 14.2688C16.6413 14.4188 16.388 14.425 16.125 14.2875C15.6625 14.0375 15.1782 13.8438 14.6722 13.7063C14.1663 13.5688 13.6505 13.5 13.125 13.5C12.375 13.5 11.65 13.6313 10.95 13.8938C10.25 14.1563 9.6 14.525 9 15Z" fill="url(#paint0_linear_126_133)"/>
<defs>
<linearGradient id="paint0_linear_126_133" x1="9.00001" y1="3" x2="9.00001" y2="15" gradientUnits="userSpaceOnUse">
<stop stop-color="#1548FD"/>
<stop offset="1" stop-color="#457EE9"/>
</linearGradient>
</defs>
</svg>
