<svg width="18" height="18" viewBox="0 0 18 18" fill="none" xmlns="http://www.w3.org/2000/svg">
<path d="M9 16.5C7.975 16.5 7.00625 16.303 6.09375 15.909C5.18125 15.515 4.38425 14.9775 3.70275 14.2965C3.02175 13.6155 2.48425 12.8188 2.09025 11.9062C1.69625 10.9937 1.4995 10.025 1.5 9C1.5 7.9625 1.697 6.9905 2.091 6.084C2.485 5.1775 3.0225 4.384 3.7035 3.7035C4.3845 3.022 5.181 2.4845 6.093 2.091C7.005 1.6975 7.974 1.5005 9 1.5C10.0375 1.5 11.0095 1.697 11.916 2.091C12.8225 2.485 13.616 3.0225 14.2965 3.7035C14.978 4.3845 15.5155 5.17825 15.909 6.08475C16.3025 6.99125 16.4995 7.963 16.5 9C16.5 10.025 16.303 10.9937 15.909 11.9062C15.515 12.8188 14.9775 13.6157 14.2965 14.2972C13.6155 14.9782 12.8218 15.5157 11.9153 15.9097C11.0088 16.3037 10.037 16.5005 9 16.5ZM9 14.9625C9.325 14.5125 9.60625 14.0438 9.84375 13.5563C10.0813 13.0688 10.275 12.55 10.425 12H7.575C7.725 12.55 7.91875 13.0688 8.15625 13.5563C8.39375 14.0438 8.675 14.5125 9 14.9625ZM7.05 14.6625C6.825 14.25 6.628 13.8217 6.459 13.3778C6.29 12.9338 6.1495 12.4745 6.0375 12H3.825C4.1875 12.625 4.64075 13.1687 5.18475 13.6312C5.72875 14.0937 6.3505 14.4375 7.05 14.6625ZM10.95 14.6625C11.65 14.4375 12.272 14.0937 12.816 13.6312C13.36 13.1687 13.813 12.625 14.175 12H11.9625C11.85 12.475 11.7095 12.9345 11.541 13.3785C11.3725 13.8225 11.1755 14.2505 10.95 14.6625ZM3.1875 10.5H5.7375C5.7 10.25 5.67175 10.003 5.65275 9.759C5.63375 9.515 5.6245 9.262 5.625 9C5.625 8.7375 5.6345 8.4845 5.6535 8.241C5.6725 7.9975 5.7005 7.7505 5.7375 7.5H3.1875C3.125 7.75 3.078 7.997 3.0465 8.241C3.015 8.485 2.9995 8.738 3 9C3 9.2625 3.01575 9.5155 3.04725 9.759C3.07875 10.0025 3.1255 10.2495 3.1875 10.5ZM7.2375 10.5H10.7625C10.8 10.25 10.8283 10.003 10.8473 9.759C10.8663 9.515 10.8755 9.262 10.875 9C10.875 8.7375 10.8655 8.4845 10.8465 8.241C10.8275 7.9975 10.7995 7.7505 10.7625 7.5H7.2375C7.2 7.75 7.17175 7.997 7.15275 8.241C7.13375 8.485 7.1245 8.738 7.125 9C7.125 9.2625 7.1345 9.5155 7.1535 9.759C7.1725 10.0025 7.2005 10.2495 7.2375 10.5ZM12.2625 10.5H14.8125C14.875 10.25 14.922 10.003 14.9535 9.759C14.985 9.515 15.0005 9.262 15 9C15 8.7375 14.9843 8.4845 14.9528 8.241C14.9213 7.9975 14.8745 7.7505 14.8125 7.5H12.2625C12.3 7.75 12.3282 7.997 12.3472 8.241C12.3663 8.485 12.3755 8.738 12.375 9C12.375 9.2625 12.3655 9.5155 12.3465 9.759C12.3275 10.0025 12.2995 10.2495 12.2625 10.5ZM11.9625 6H14.175C13.8125 5.375 13.3595 4.83125 12.816 4.36875C12.2725 3.90625 11.6505 3.5625 10.95 3.3375C11.175 3.75 11.372 4.17825 11.541 4.62225C11.71 5.06625 11.8505 5.5255 11.9625 6ZM7.575 6H10.425C10.275 5.45 10.0813 4.93125 9.84375 4.44375C9.60625 3.95625 9.325 3.4875 9 3.0375C8.675 3.4875 8.39375 3.95625 8.15625 4.44375C7.91875 4.93125 7.725 5.45 7.575 6ZM3.825 6H6.0375C6.15 5.525 6.29075 5.0655 6.45975 4.6215C6.62875 4.1775 6.8255 3.7495 7.05 3.3375C6.35 3.5625 5.728 3.90625 5.184 4.36875C4.64 4.83125 4.187 5.375 3.825 6Z" fill="url(#paint0_linear_126_128)"/>
<defs>
<linearGradient id="paint0_linear_126_128" x1="9" y1="1.5" x2="9" y2="16.5" gradientUnits="userSpaceOnUse">
<stop stop-color="#1548FD"/>
<stop offset="1" stop-color="#457EE9"/>
</linearGradient>
</defs>
</svg>
