<svg width="185" height="45" viewBox="0 0 185 45" fill="none" xmlns="http://www.w3.org/2000/svg">
<path d="M12.776 32.17C12.776 34.7153 12.316 36.816 11.396 38.472C10.5067 40.128 9.31069 41.416 7.80802 42.336C6.33602 43.2867 4.57269 44.0993 2.51802 44.774L0.494019 39.438C1.84335 38.9167 2.85535 38.3187 3.53002 37.644C4.20469 36.9693 4.64935 36.1873 4.86402 35.298C5.10935 34.4087 5.23202 33.274 5.23202 31.894V5.12201H12.776V32.17Z" fill="#141414"/>
<path d="M32.7576 11.792C34.8736 11.792 36.5296 12.436 37.7256 13.724C38.9216 15.012 39.5196 16.8213 39.5196 19.152V37H32.2516V20.394C32.2516 19.1673 32.0523 18.324 31.6536 17.864C31.255 17.3733 30.6876 17.128 29.9516 17.128C28.4796 17.128 27.069 18.1707 25.7196 20.256V37H18.4516V0L25.7196 2.86799V15.196C26.7316 14.0613 27.805 13.218 28.9396 12.666C30.0743 12.0833 31.347 11.792 32.7576 11.792Z" fill="#141414"/>
<path d="M55.5805 11.792C59.3218 11.792 62.2505 12.942 64.3665 15.242C66.4825 17.5113 67.5405 20.7007 67.5405 24.81C67.5405 27.4167 67.0498 29.7013 66.0685 31.664C65.1178 33.596 63.7378 35.0987 61.9285 36.172C60.1498 37.2453 58.0338 37.782 55.5805 37.782C51.8698 37.782 48.9411 36.6473 46.7945 34.378C44.6785 32.078 43.6205 28.8733 43.6205 24.764C43.6205 22.1573 44.0958 19.888 45.0465 17.956C46.0278 15.9933 47.4078 14.4753 49.1865 13.402C50.9958 12.3287 53.1271 11.792 55.5805 11.792ZM55.5805 17.128C54.1085 17.128 53.0045 17.7567 52.2685 19.014C51.5325 20.2407 51.1645 22.1573 51.1645 24.764C51.1645 27.432 51.5171 29.3793 52.2225 30.606C52.9585 31.8327 54.0778 32.446 55.5805 32.446C57.0525 32.446 58.1565 31.8327 58.8925 30.606C59.6285 29.3487 59.9965 27.4167 59.9965 24.81C59.9965 22.142 59.6285 20.1947 58.8925 18.968C58.1871 17.7413 57.0831 17.128 55.5805 17.128Z" fill="#141414"/>
<path d="M86.1697 11.792C88.2857 11.792 89.9417 12.436 91.1377 13.724C92.3337 15.012 92.9317 16.8213 92.9317 19.152V37H85.6637V20.394C85.6637 19.1673 85.4644 18.324 85.0657 17.864C84.6977 17.3733 84.1304 17.128 83.3637 17.128C81.8917 17.128 80.4811 18.186 79.1317 20.302V37H71.8637V10L78.2117 12.574L78.7177 15.472C79.7604 14.2453 80.8797 13.3253 82.0757 12.712C83.3024 12.0987 84.6671 11.792 86.1697 11.792Z" fill="#141414"/>
<path d="M117.825 29.916C117.825 30.836 117.947 31.5107 118.193 31.94C118.469 32.3693 118.898 32.6913 119.481 32.906L117.963 37.644C116.46 37.5213 115.233 37.1993 114.283 36.678C113.332 36.126 112.596 35.2673 112.075 34.102C110.48 36.5553 108.027 37.782 104.715 37.782C102.292 37.782 100.36 37.0767 98.9186 35.666C97.4772 34.2553 96.7566 32.4153 96.7566 30.146C96.7566 27.478 97.7379 25.4387 99.7006 24.028C101.663 22.6173 104.5 21.912 108.211 21.912H110.695V20.854C110.695 19.4127 110.388 18.4313 109.775 17.91C109.161 17.358 108.088 17.082 106.555 17.082C105.757 17.082 104.791 17.2047 103.657 17.45C102.522 17.6647 101.357 17.9713 100.161 18.37L98.5046 13.586C100.038 13.0033 101.602 12.5587 103.197 12.252C104.822 11.9453 106.325 11.792 107.705 11.792C111.201 11.792 113.761 12.5127 115.387 13.954C117.012 15.3953 117.825 17.5573 117.825 20.44V29.916ZM106.831 32.584C108.487 32.584 109.775 31.802 110.695 30.238V25.914H108.901C107.245 25.914 106.003 26.2053 105.175 26.788C104.377 27.3707 103.979 28.2753 103.979 29.502C103.979 30.4833 104.224 31.25 104.715 31.802C105.236 32.3233 105.941 32.584 106.831 32.584Z" fill="#141414"/>
<path d="M138.932 35.85C138.042 36.4633 137 36.9387 135.804 37.276C134.638 37.6133 133.473 37.782 132.308 37.782C126.972 37.7513 124.304 34.8073 124.304 28.95V17.634H120.854L117.154 16.5L124.304 12.574V7.28401L131.572 6.45601V12.574L140.911 13.586L136.402 17.634H131.572V28.858C131.572 29.9927 131.756 30.8053 132.124 31.296C132.492 31.7867 133.074 32.032 133.872 32.032C134.7 32.032 135.574 31.7713 136.494 31.25L138.932 35.85Z" fill="#141414"/>
<path d="M160.231 29.916C160.231 30.836 160.353 31.5107 160.599 31.94C160.875 32.3693 161.304 32.6913 161.887 32.906L160.369 37.644C158.866 37.5213 157.639 37.1993 156.689 36.678C155.738 36.126 155.002 35.2673 154.481 34.102C152.886 36.5553 150.433 37.782 147.121 37.782C144.698 37.782 142.766 37.0767 141.325 35.666C139.883 34.2553 139.163 32.4153 139.163 30.146C139.163 27.478 140.144 25.4387 142.107 24.028C144.069 22.6173 146.906 21.912 150.617 21.912H153.101V20.854C153.101 19.4127 152.794 18.4313 152.181 17.91C151.567 17.358 150.494 17.082 148.961 17.082C148.163 17.082 147.197 17.2047 146.063 17.45C144.928 17.6647 143.763 17.9713 142.567 18.37L140.911 13.586C142.444 13.0033 144.008 12.5587 145.603 12.252C147.228 11.9453 148.731 11.792 150.111 11.792C153.607 11.792 156.167 12.5127 157.793 13.954C159.418 15.3953 160.231 17.5573 160.231 20.44V29.916ZM149.237 32.584C150.893 32.584 152.181 31.802 153.101 30.238V25.914H151.307C149.651 25.914 148.409 26.2053 147.581 26.788C146.783 27.3707 146.385 28.2753 146.385 29.502C146.385 30.4833 146.63 31.25 147.121 31.802C147.642 32.3233 148.347 32.584 149.237 32.584Z" fill="#141414"/>
<path d="M174.173 11.792C175.921 11.792 177.561 12.0527 179.095 12.574C180.628 13.0953 182.335 10.8413 183.5 11.792L180.475 18.876C178.481 17.6187 176.473 16.99 174.449 16.99C173.498 16.99 172.762 17.1587 172.241 17.496C171.75 17.8027 171.505 18.2473 171.505 18.83C171.505 19.29 171.612 19.6733 171.827 19.98C172.072 20.256 172.547 20.5473 173.253 20.854C173.958 21.1607 175.047 21.5287 176.519 21.958C179.064 22.694 180.95 23.66 182.177 24.856C183.434 26.0213 184.063 27.6467 184.063 29.732C184.063 31.388 183.587 32.8293 182.637 34.056C181.686 35.252 180.383 36.172 178.727 36.816C177.071 37.46 175.231 37.782 173.207 37.782C171.152 37.782 169.235 37.46 167.457 36.816C165.709 36.172 163.727 38.4107 162.5 37.276L166.537 30.192C168.591 31.7867 170.753 32.584 173.023 32.584C174.127 32.584 174.985 32.3847 175.599 31.986C176.243 31.5873 176.565 31.02 176.565 30.284C176.565 29.7013 176.442 29.2413 176.197 28.904C175.951 28.5667 175.476 28.26 174.771 27.984C174.065 27.6773 172.946 27.3093 171.413 26.88C168.99 26.1747 167.181 25.1933 165.985 23.936C164.789 22.6787 164.191 21.1147 164.191 19.244C164.191 17.8333 164.589 16.576 165.387 15.472C166.215 14.3373 167.38 13.448 168.883 12.804C170.416 12.1293 172.179 11.792 174.173 11.792Z" fill="#141414"/>
</svg>
